PathFileType	4	(X/Y/Z)	D:\datacapture\jf2lin\2017-09-14 IITTimeSync\timesync2.trc
DataRate	CameraRate	NumFrames	NumMarkers	Units	OrigDataRate	OrigDataStartFrame	OrigNumFrames
100.00	100.00	      78	3	mm	100.00	1437	      2873
Frame#	Time	M1			M2			M3			
		X1	Y1	Z1	X2	Y2	Z2	X3	Y3	Z3	

1437	14.360	227.22823	1159.74512	150.13390	268.70914	1189.36597	143.80342	386.62122	1276.66028	125.69431	
1438	14.370	227.60986	1159.47095	150.02834	269.19708	1189.46704	143.72748	386.62122	1276.66028	125.69431	
1439	14.380	228.13905	1159.87927	150.02483	269.50937	1189.85620	143.29138	387.12711	1277.30762	124.95595	
1440	14.390	227.98476	1159.76270	150.41216	269.50937	1189.85620	143.29138	387.43512	1277.33582	125.02860	
1441	14.400	228.18292	1160.02930	150.09827	269.87430	1189.95251	143.43103	387.52246	1277.35645	125.08790	
1442	14.410	228.27652	1160.53931	150.10970	269.62143	1189.69897	143.96193	387.53433	1277.65491	124.94474	
1443	14.420	228.20006	1160.63721	150.37723	269.37170	1189.92053	143.88043	387.33655	1277.89441	124.82328	
1444	14.430	227.68556	1160.61023	150.84624	269.51501	1190.82776	143.76765	386.81656	1278.40564	124.95802	
1445	14.440	227.70796	1161.13684	150.43791	269.25317	1191.84937	143.70708	386.73273	1278.53381	124.82552	
1446	14.450	227.33624	1160.59656	151.09966	269.25430	1193.13367	143.47076	386.85043	1278.93933	124.71238	
1447	14.460	226.91551	1161.09375	151.68053	269.12692	1193.20190	143.38368	386.72913	1279.68494	124.87616	
1448	14.470	226.59424	1161.43335	151.57277	268.55576	1193.03320	143.53831	385.55176	1279.74829	125.13733	
1449	14.480	226.48167	1162.26880	151.30522	268.34787	1192.94104	144.20906	385.24359	1279.71985	125.06467	
1450	14.490	226.13341	1162.32446	151.83902	267.40320	1192.77356	145.13310	385.10068	1280.25842	125.08091	
1451	14.500	225.01659	1161.57861	152.69931	267.35516	1194.05457	144.71336	385.11243	1280.55688	124.93788	
1452	14.510	224.99750	1163.43274	152.08652	266.94308	1194.22070	144.98318	384.15677	1280.19507	126.06026	
1453	14.520	224.73109	1163.74902	152.03055	265.84299	1193.71838	145.36290	383.72842	1280.29614	126.08252	
1454	14.530	223.48259	1162.56030	153.51825	265.21954	1193.25439	146.14723	383.65735	1280.34802	125.73463	
1455	14.540	223.26756	1162.84131	153.65994	264.77975	1193.30933	146.31172	383.39090	1281.18384	125.70348	
1456	14.550	222.58952	1163.24902	153.62764	264.32129	1193.93616	146.17459	382.24435	1281.24792	126.26891	
1457	14.560	222.52513	1163.66687	153.84152	264.41974	1194.92102	145.88216	382.10181	1281.15088	126.02737	
1458	14.570	222.11992	1164.41602	154.30684	263.70490	1194.89709	146.21078	381.26459	1280.91687	126.71264	
1459	14.580	221.26042	1163.55859	155.17923	263.60516	1195.34985	145.94972	381.02786	1281.00256	126.26603	
1460	14.590	221.12639	1163.49475	155.09729	262.76093	1194.32568	147.07138	380.75827	1280.69800	126.20608	
1461	14.600	220.73227	1163.79077	155.31912	262.34686	1194.33069	147.60661	380.33011	1280.79883	126.22845	
1462	14.610	220.09500	1163.39697	156.22491	262.01270	1194.36157	147.79597	379.96921	1280.68506	126.59650	
1463	14.620	219.65564	1163.43616	156.36487	261.68262	1194.00061	148.16315	379.96921	1280.68506	126.59650	
1464	14.630	219.24956	1163.37024	156.55679	261.58490	1193.69995	148.62170	379.53271	1280.35254	127.02821	
1465	14.640	218.77039	1162.88123	157.23599	261.33496	1194.12048	148.76053	379.41443	1280.25793	127.47328	
1466	14.650	218.61227	1163.24084	157.56209	260.99265	1193.85193	148.95027	379.36508	1279.88550	127.62334	
1467	14.660	218.29576	1162.97498	157.76888	260.45499	1193.58032	149.76729	379.24817	1279.48096	127.73594	
1468	14.670	218.14951	1162.98804	158.00720	260.19601	1193.66516	150.18120	378.74149	1279.15674	128.26453	
1469	14.680	217.96164	1163.02820	158.31366	259.81049	1193.48071	150.09712	378.25671	1279.14233	128.19540	
1470	14.690	217.51321	1162.82190	158.70865	259.94574	1193.54614	150.18004	377.85770	1279.17993	128.36395	
1471	14.700	217.22552	1162.34241	159.32919	259.46167	1193.09753	150.48784	377.34451	1279.13208	128.24266	
1472	14.710	217.35559	1162.56628	159.34575	259.16373	1193.28943	150.32500	377.22388	1279.26501	128.07901	
1473	14.720	216.94102	1161.98999	160.03105	259.16373	1193.28943	150.32500	377.22388	1279.26501	128.07901	
1474	14.730	217.40950	1162.81140	159.66255	259.16373	1193.28943	150.32500	376.70633	1279.52307	128.24588	
1475	14.740	216.73511	1162.21753	160.15230	258.64923	1193.70789	150.45219	376.70633	1279.52307	128.24588	
1476	14.750	217.01199	1162.65710	160.19696	258.32593	1193.04053	151.37756	376.31784	1279.71643	127.78751	
1477	14.760	217.01669	1163.00806	160.06424	258.12729	1193.12708	151.87349	375.98041	1279.40002	127.72918	
1478	14.770	216.72830	1162.69629	160.37874	258.26135	1194.26135	151.46162	375.81506	1279.43408	127.63048	
1479	14.780	215.88806	1162.39648	161.07492	257.83331	1193.86108	151.93175	375.81506	1279.43408	127.63048	
1480	14.790	215.64632	1162.91589	161.53520	257.52582	1193.46436	152.38185	375.81879	1279.23132	127.38230	
1481	14.800	216.08382	1164.45398	161.50084	257.74210	1194.35217	152.34819	375.81879	1279.23132	127.38230	
1482	14.810	215.55429	1164.99463	162.15010	257.94623	1195.72681	151.96730	375.75079	1279.61780	126.98011	
1483	14.820	215.56387	1165.71326	162.52533	257.39645	1195.72314	152.48581	375.31277	1279.52283	126.57815	
1484	14.830	214.92534	1166.14185	163.83548	256.94702	1195.56409	154.15442	375.62048	1279.63953	126.15184	
1485	14.840	214.75534	1168.60071	164.84883	256.43826	1197.24036	154.55649	375.80914	1280.06458	125.43988	
1486	14.850	213.71265	1168.40039	166.39738	256.22433	1198.11658	155.26569	375.31888	1279.56519	125.15366	
1487	14.860	212.44936	1170.01746	168.76631	254.59468	1198.52942	156.76961	375.24213	1279.80615	124.41167	
1488	14.870	211.96648	1171.95325	169.55562	254.23619	1200.80713	157.63020	374.83035	1279.73389	124.35633	
1489	14.880	210.36543	1173.26074	172.66357	253.28801	1201.75220	159.64978	374.05884	1280.32349	124.11735	
1490	14.890	209.49634	1176.67761	173.53433	252.18779	1203.52173	160.56596	373.35654	1280.34497	124.42435	
1491	14.900	207.13864	1177.33044	177.54439	251.10892	1204.91833	162.30965	373.45117	1281.38330	124.16641	
1492	14.910	206.18291	1181.24365	179.13603	249.74376	1207.28833	163.80713	371.95132	1281.19202	124.42387	
1493	14.920	204.43015	1183.58765	181.28539	248.29115	1209.41980	166.07137	370.60818	1280.94958	124.75880	
1494	14.930	202.65886	1186.30151	184.01758	246.82648	1211.44861	167.78186	369.35483	1281.40967	124.80679	
1495	14.940	201.55434	1189.45374	186.49188	244.63690	1212.48145	170.44974	369.39294	1282.24329	123.83235	
1496	14.950	199.62029	1192.01074	190.03271	244.04263	1216.54089	172.24922	367.94308	1282.57483	124.41748	
1497	14.960	198.03656	1196.11963	192.27089	241.96732	1217.73755	174.77370				
1498	14.970	195.98390	1199.90503	194.78879	239.89929	1220.70581	177.18399				
1499	14.980	194.00865	1202.57642	198.44823	238.15562	1222.62732	180.07431				
1500	14.990	191.78168	1206.12415	202.26506	236.95013	1226.19873	182.09683				
1501	15.000	189.97681	1210.07581	205.23463	234.05930	1227.27966	185.57726				
1502	15.010	188.34447	1213.29041	209.80014	232.61507	1231.26843	187.61099				
1503	15.020	186.31749	1216.67297	213.48370	230.60518	1233.97363	191.49377				
1504	15.030	185.34137	1220.82922	217.45107	227.82056	1236.03052	195.58850				
1505	15.040	182.65456	1223.27283	221.84912	226.74547	1239.85596	198.15085				
1506	15.050	180.70177	1227.05725	225.82349	224.20807	1243.17969	201.73122				
1507	15.060	179.28044	1232.07373	230.05597	222.51472	1246.81812	205.52197				
1508	15.070	177.92877	1235.59595	234.42316	219.67747	1249.68921	208.99997	342.74637	1295.01306	135.55095	
1509	15.080	175.76289	1238.65405	239.38834	217.88676	1252.71753	213.43935				
1510	15.090	174.25270	1243.39783	243.63243	216.24721	1256.80530	216.71872				
1511	15.100	172.57936	1246.74109	248.77809	214.17854	1261.28564	220.24701				
1512	15.110	170.90855	1250.59705	253.59233	213.00346	1264.33411	223.75375	330.60010	1306.24963	141.75848	
1513	15.120	170.25716	1254.66772	257.01221	210.52162	1267.94714	227.73714	326.78549	1307.57544	144.50276	
1514	15.130	168.45697	1257.50854	262.47775	208.97198	1270.34497	232.01018	324.59958	1312.00024	146.96043	
